<mxfile host="app.diagrams.net" modified="2024-07-20T09:25:18.220Z" agent="Mozilla/5.0 (Macintosh; Intel Mac OS X 10_15_7) AppleWebKit/537.36 (KHTML, like Gecko) Chrome/125.0.0.0 Safari/537.36" etag="h52prjGem0-O7evU7bFB" version="24.7.2" type="github">
  <diagram name="第 1 页" id="jJ66Md09S9d45xrLp3_S">
    <mxGraphModel dx="1434" dy="761" grid="1" gridSize="10" guides="1" tooltips="1" connect="1" arrows="1" fold="1" page="1" pageScale="1" pageWidth="827" pageHeight="1169" math="0" shadow="0">
      <root>
        <mxCell id="0" />
        <mxCell id="1" parent="0" />
        <mxCell id="XTF353i9dmQRYV5_vyQs-1" value="" style="rounded=0;whiteSpace=wrap;html=1;verticalAlign=top;fillColor=#EDEDED;strokeColor=none;fontColor=#333333;opacity=80;movable=1;resizable=1;rotatable=1;deletable=1;editable=1;locked=0;connectable=1;" vertex="1" parent="1">
          <mxGeometry x="310" y="320" width="1208" height="599" as="geometry" />
        </mxCell>
        <mxCell id="XTF353i9dmQRYV5_vyQs-2" value="容器编排" style="rounded=1;whiteSpace=wrap;html=1;verticalAlign=top;fillColor=#dae8fc;strokeColor=none;fontColor=#7EA6E0;" vertex="1" parent="1">
          <mxGeometry x="1062" y="752" width="310" height="71" as="geometry" />
        </mxCell>
        <mxCell id="XTF353i9dmQRYV5_vyQs-3" value="支撑服务" style="rounded=1;whiteSpace=wrap;html=1;verticalAlign=top;fillColor=#dae8fc;strokeColor=none;fontColor=#7EA6E0;" vertex="1" parent="1">
          <mxGeometry x="421" y="582" width="827" height="60" as="geometry" />
        </mxCell>
        <mxCell id="XTF353i9dmQRYV5_vyQs-4" value="分布式缓存/对象存储/文件存储" style="rounded=1;whiteSpace=wrap;html=1;verticalAlign=top;fillColor=#dae8fc;strokeColor=none;fontColor=#7EA6E0;" vertex="1" parent="1">
          <mxGeometry x="964" y="652" width="408.5" height="90" as="geometry" />
        </mxCell>
        <mxCell id="XTF353i9dmQRYV5_vyQs-5" value="DevOps" style="rounded=1;whiteSpace=wrap;html=1;verticalAlign=top;fillColor=#dae8fc;strokeColor=none;fontColor=#7EA6E0;" vertex="1" parent="1">
          <mxGeometry x="1257" y="501" width="120" height="140" as="geometry" />
        </mxCell>
        <mxCell id="XTF353i9dmQRYV5_vyQs-6" value="监控" style="rounded=1;whiteSpace=wrap;html=1;verticalAlign=top;fillColor=#dae8fc;strokeColor=none;fontColor=#7EA6E0;" vertex="1" parent="1">
          <mxGeometry x="1385" y="331" width="120" height="583" as="geometry" />
        </mxCell>
        <mxCell id="XTF353i9dmQRYV5_vyQs-7" value="" style="rounded=1;whiteSpace=wrap;html=1;verticalAlign=middle;fillColor=#DAE8FC;fontColor=#7EA6E0;strokeColor=none;" vertex="1" parent="1">
          <mxGeometry x="423" y="416" width="822" height="44" as="geometry" />
        </mxCell>
        <mxCell id="XTF353i9dmQRYV5_vyQs-8" value="高可用数据库" style="rounded=1;whiteSpace=wrap;html=1;verticalAlign=top;fillColor=#dae8fc;strokeColor=none;fontColor=#7EA6E0;" vertex="1" parent="1">
          <mxGeometry x="319" y="652" width="632.5" height="90" as="geometry" />
        </mxCell>
        <mxCell id="XTF353i9dmQRYV5_vyQs-9" value="日志分析" style="rounded=1;whiteSpace=wrap;html=1;verticalAlign=top;fillColor=#DAE8FC;strokeColor=none;fontColor=#7EA6E0;" vertex="1" parent="1">
          <mxGeometry x="1255" y="416" width="120" height="75" as="geometry" />
        </mxCell>
        <mxCell id="XTF353i9dmQRYV5_vyQs-10" value="Prometheus" style="rounded=1;whiteSpace=wrap;html=1;fillColor=#7EA6E0;fontColor=#FFFFFF;strokeColor=none;" vertex="1" parent="1">
          <mxGeometry x="1405" y="357" width="80" height="40" as="geometry" />
        </mxCell>
        <mxCell id="XTF353i9dmQRYV5_vyQs-11" value="容器化" style="rounded=1;whiteSpace=wrap;html=1;verticalAlign=top;fillColor=#dae8fc;strokeColor=none;fontColor=#7EA6E0;" vertex="1" parent="1">
          <mxGeometry x="319" y="752" width="729.5" height="71" as="geometry" />
        </mxCell>
        <mxCell id="XTF353i9dmQRYV5_vyQs-12" value="Docker" style="rounded=1;whiteSpace=wrap;html=1;fillColor=#7EA6E0;strokeColor=none;fontColor=#FFFFFF;" vertex="1" parent="1">
          <mxGeometry x="341" y="780" width="100" height="30" as="geometry" />
        </mxCell>
        <mxCell id="XTF353i9dmQRYV5_vyQs-13" value="K8s" style="rounded=1;whiteSpace=wrap;html=1;fillColor=#7EA6E0;strokeColor=none;fontColor=#FFFFFF;" vertex="1" parent="1">
          <mxGeometry x="1097.5" y="780" width="100" height="30" as="geometry" />
        </mxCell>
        <mxCell id="XTF353i9dmQRYV5_vyQs-14" value="&amp;nbsp; &amp;nbsp; 基础设施" style="rounded=1;whiteSpace=wrap;html=1;verticalAlign=top;fillColor=#dae8fc;strokeColor=none;fontColor=#7EA6E0;align=left;" vertex="1" parent="1">
          <mxGeometry x="319" y="833" width="1055" height="74" as="geometry" />
        </mxCell>
        <mxCell id="XTF353i9dmQRYV5_vyQs-15" value="cAdivisor" style="rounded=1;whiteSpace=wrap;html=1;fillColor=#7EA6E0;fontColor=#FFFFFF;strokeColor=none;" vertex="1" parent="1">
          <mxGeometry x="1405" y="429" width="80" height="40" as="geometry" />
        </mxCell>
        <mxCell id="XTF353i9dmQRYV5_vyQs-16" value="Storage Metrics" style="rounded=1;whiteSpace=wrap;html=1;fillColor=#7EA6E0;fontColor=#FFFFFF;strokeColor=none;" vertex="1" parent="1">
          <mxGeometry x="1405" y="502" width="80" height="40" as="geometry" />
        </mxCell>
        <mxCell id="XTF353i9dmQRYV5_vyQs-17" value="Node&lt;div&gt;Exporter&lt;/div&gt;" style="rounded=1;whiteSpace=wrap;html=1;fillColor=#7EA6E0;fontColor=#FFFFFF;strokeColor=none;" vertex="1" parent="1">
          <mxGeometry x="1405" y="574" width="80" height="40" as="geometry" />
        </mxCell>
        <mxCell id="XTF353i9dmQRYV5_vyQs-18" value="Blackbox&lt;div&gt;Exporter&lt;/div&gt;" style="rounded=1;whiteSpace=wrap;html=1;fillColor=#7EA6E0;fontColor=#FFFFFF;strokeColor=none;" vertex="1" parent="1">
          <mxGeometry x="1405" y="646" width="80" height="40" as="geometry" />
        </mxCell>
        <mxCell id="XTF353i9dmQRYV5_vyQs-19" value="灵捷平台" style="rounded=1;whiteSpace=wrap;html=1;fillColor=#7EA6E0;fontColor=#FFFFFF;strokeColor=none;" vertex="1" parent="1">
          <mxGeometry x="1275" y="587" width="80" height="30" as="geometry" />
        </mxCell>
        <mxCell id="XTF353i9dmQRYV5_vyQs-20" value="Kube State&lt;div&gt;Metrics&lt;/div&gt;" style="rounded=1;whiteSpace=wrap;html=1;fillColor=#7EA6E0;fontColor=#FFFFFF;strokeColor=none;" vertex="1" parent="1">
          <mxGeometry x="1405" y="718" width="80" height="40" as="geometry" />
        </mxCell>
        <mxCell id="XTF353i9dmQRYV5_vyQs-21" value="" style="rounded=1;whiteSpace=wrap;html=1;verticalAlign=middle;fillColor=#DAE8FC;fontColor=#FFFFFF;strokeColor=none;" vertex="1" parent="1">
          <mxGeometry x="319" y="331" width="1056" height="75" as="geometry" />
        </mxCell>
        <mxCell id="XTF353i9dmQRYV5_vyQs-22" value="Jenkins" style="rounded=1;whiteSpace=wrap;html=1;fillColor=#7EA6E0;fontColor=#FFFFFF;strokeColor=none;" vertex="1" parent="1">
          <mxGeometry x="1275" y="542" width="80" height="30" as="geometry" />
        </mxCell>
        <mxCell id="XTF353i9dmQRYV5_vyQs-23" value="EFK" style="rounded=1;whiteSpace=wrap;html=1;fillColor=#7EA6E0;fontColor=#FFFFFF;strokeColor=none;" vertex="1" parent="1">
          <mxGeometry x="1274" y="453" width="80" height="25" as="geometry" />
        </mxCell>
        <mxCell id="XTF353i9dmQRYV5_vyQs-24" value="开发平台" style="rounded=1;whiteSpace=wrap;html=1;verticalAlign=top;fillColor=#dae8fc;strokeColor=none;fontColor=#7EA6E0;" vertex="1" parent="1">
          <mxGeometry x="424" y="470" width="446" height="102" as="geometry" />
        </mxCell>
        <mxCell id="XTF353i9dmQRYV5_vyQs-25" value="消息总线" style="rounded=1;whiteSpace=wrap;html=1;verticalAlign=top;fillColor=#dae8fc;strokeColor=none;fontColor=#7EA6E0;" vertex="1" parent="1">
          <mxGeometry x="319" y="417" width="94" height="87" as="geometry" />
        </mxCell>
        <mxCell id="XTF353i9dmQRYV5_vyQs-26" value="RabbitMQ" style="rounded=1;whiteSpace=wrap;html=1;verticalAlign=top;fillColor=#7EA6E0;fontColor=#FFFFFF;strokeColor=none;" vertex="1" parent="1">
          <mxGeometry x="336" y="450.5" width="60" height="30" as="geometry" />
        </mxCell>
        <mxCell id="XTF353i9dmQRYV5_vyQs-27" value="集成" style="rounded=1;whiteSpace=wrap;html=1;verticalAlign=top;fillColor=#dae8fc;strokeColor=none;fontColor=#7EA6E0;" vertex="1" parent="1">
          <mxGeometry x="319" y="515" width="94" height="123" as="geometry" />
        </mxCell>
        <mxCell id="XTF353i9dmQRYV5_vyQs-28" value="OnlyOffice" style="rounded=1;whiteSpace=wrap;html=1;verticalAlign=top;fillColor=#7EA6E0;fontColor=#FFFFFF;strokeColor=none;" vertex="1" parent="1">
          <mxGeometry x="336" y="550" width="60" height="30" as="geometry" />
        </mxCell>
        <mxCell id="XTF353i9dmQRYV5_vyQs-29" value="DataEase" style="rounded=1;whiteSpace=wrap;html=1;verticalAlign=top;fillColor=#7EA6E0;fontColor=#FFFFFF;strokeColor=none;" vertex="1" parent="1">
          <mxGeometry x="336" y="590" width="60" height="30" as="geometry" />
        </mxCell>
        <mxCell id="XTF353i9dmQRYV5_vyQs-30" value="Grafana" style="rounded=1;whiteSpace=wrap;html=1;fillColor=#7EA6E0;fontColor=#FFFFFF;strokeColor=none;" vertex="1" parent="1">
          <mxGeometry x="1405" y="791" width="80" height="40" as="geometry" />
        </mxCell>
        <mxCell id="XTF353i9dmQRYV5_vyQs-31" value="Skywalking" style="rounded=1;whiteSpace=wrap;html=1;fillColor=#7EA6E0;fontColor=#FFFFFF;strokeColor=none;" vertex="1" parent="1">
          <mxGeometry x="1405" y="863" width="80" height="40" as="geometry" />
        </mxCell>
        <mxCell id="XTF353i9dmQRYV5_vyQs-32" value="字典服务" style="rounded=1;whiteSpace=wrap;html=1;verticalAlign=top;fillColor=#7EA6E0;fontColor=#FFFFFF;strokeColor=none;" vertex="1" parent="1">
          <mxGeometry x="619" y="602" width="117" height="30" as="geometry" />
        </mxCell>
        <mxCell id="XTF353i9dmQRYV5_vyQs-33" value="追踪服务" style="rounded=1;whiteSpace=wrap;html=1;verticalAlign=top;fillColor=#7EA6E0;fontColor=#FFFFFF;strokeColor=none;" vertex="1" parent="1">
          <mxGeometry x="773.5" y="603.5" width="121" height="30" as="geometry" />
        </mxCell>
        <mxCell id="XTF353i9dmQRYV5_vyQs-34" value="搜索服务" style="rounded=1;whiteSpace=wrap;html=1;verticalAlign=top;fillColor=#7EA6E0;fontColor=#FFFFFF;strokeColor=none;" vertex="1" parent="1">
          <mxGeometry x="466" y="603.5" width="118" height="30" as="geometry" />
        </mxCell>
        <mxCell id="XTF353i9dmQRYV5_vyQs-35" value="消息服务" style="rounded=1;whiteSpace=wrap;html=1;verticalAlign=top;fillColor=#7EA6E0;fontColor=#FFFFFF;strokeColor=none;" vertex="1" parent="1">
          <mxGeometry x="1102.5" y="600.5" width="103.5" height="30" as="geometry" />
        </mxCell>
        <mxCell id="XTF353i9dmQRYV5_vyQs-36" value="运行平台" style="rounded=1;whiteSpace=wrap;html=1;verticalAlign=top;fillColor=#dae8fc;strokeColor=none;fontColor=#7EA6E0;" vertex="1" parent="1">
          <mxGeometry x="881" y="470" width="363" height="102" as="geometry" />
        </mxCell>
        <mxCell id="XTF353i9dmQRYV5_vyQs-37" value="&lt;span style=&quot;&quot;&gt;表单引擎&lt;/span&gt;" style="rounded=1;whiteSpace=wrap;html=1;verticalAlign=top;fillColor=#7EA6E0;fontColor=#FFFFFF;strokeColor=none;" vertex="1" parent="1">
          <mxGeometry x="907.25" y="498" width="90" height="30" as="geometry" />
        </mxCell>
        <mxCell id="XTF353i9dmQRYV5_vyQs-38" value="&lt;span style=&quot;&quot;&gt;报表&lt;/span&gt;" style="rounded=1;whiteSpace=wrap;html=1;verticalAlign=top;fillColor=#7EA6E0;fontColor=#FFFFFF;strokeColor=none;" vertex="1" parent="1">
          <mxGeometry x="907.25" y="536" width="90" height="28" as="geometry" />
        </mxCell>
        <mxCell id="XTF353i9dmQRYV5_vyQs-39" value="页面引擎" style="rounded=1;whiteSpace=wrap;html=1;verticalAlign=top;fillColor=#7EA6E0;fontColor=#FFFFFF;strokeColor=none;" vertex="1" parent="1">
          <mxGeometry x="1018.75" y="498" width="90" height="30" as="geometry" />
        </mxCell>
        <mxCell id="XTF353i9dmQRYV5_vyQs-40" value="&lt;span style=&quot;&quot;&gt;大屏&lt;/span&gt;" style="rounded=1;whiteSpace=wrap;html=1;verticalAlign=top;fillColor=#7EA6E0;fontColor=#FFFFFF;strokeColor=none;" vertex="1" parent="1">
          <mxGeometry x="1018.75" y="536" width="90" height="28" as="geometry" />
        </mxCell>
        <mxCell id="XTF353i9dmQRYV5_vyQs-41" value="&lt;span style=&quot;&quot;&gt;流程引擎&lt;/span&gt;" style="rounded=1;whiteSpace=wrap;html=1;verticalAlign=top;fillColor=#7EA6E0;fontColor=#FFFFFF;strokeColor=none;" vertex="1" parent="1">
          <mxGeometry x="1130.75" y="498" width="90" height="30" as="geometry" />
        </mxCell>
        <mxCell id="XTF353i9dmQRYV5_vyQs-42" value="观测服务" style="rounded=1;whiteSpace=wrap;html=1;verticalAlign=top;fillColor=#7EA6E0;fontColor=#FFFFFF;strokeColor=none;" vertex="1" parent="1">
          <mxGeometry x="939" y="601.5" width="120" height="30" as="geometry" />
        </mxCell>
        <mxCell id="XTF353i9dmQRYV5_vyQs-43" value="&lt;div&gt;&lt;br&gt;&lt;/div&gt;&lt;div&gt;MySQL&lt;/div&gt;" style="shape=cylinder3;whiteSpace=wrap;html=1;boundedLbl=1;backgroundOutline=1;size=15;rounded=0;strokeColor=default;align=center;verticalAlign=bottom;fontFamily=Helvetica;fontSize=12;fontColor=#FFFFFF;fillColor=#7EA6E0;strokeWidth=0;" vertex="1" parent="1">
          <mxGeometry x="376" y="681" width="100" height="53.5" as="geometry" />
        </mxCell>
        <mxCell id="XTF353i9dmQRYV5_vyQs-44" value="&lt;div&gt;Oracle&lt;/div&gt;" style="shape=cylinder3;whiteSpace=wrap;html=1;boundedLbl=1;backgroundOutline=1;size=15;rounded=0;strokeColor=default;align=center;verticalAlign=bottom;fontFamily=Helvetica;fontSize=12;fontColor=#FFFFFF;fillColor=#7EA6E0;strokeWidth=0;" vertex="1" parent="1">
          <mxGeometry x="519" y="681" width="100" height="53.5" as="geometry" />
        </mxCell>
        <mxCell id="XTF353i9dmQRYV5_vyQs-45" value="......" style="shape=cylinder3;whiteSpace=wrap;html=1;boundedLbl=1;backgroundOutline=1;size=15;rounded=0;strokeColor=default;align=center;verticalAlign=bottom;fontFamily=Helvetica;fontSize=12;fontColor=#FFFFFF;fillColor=#7EA6E0;strokeWidth=0;" vertex="1" parent="1">
          <mxGeometry x="805" y="681" width="100" height="53.5" as="geometry" />
        </mxCell>
        <mxCell id="XTF353i9dmQRYV5_vyQs-46" value="&lt;span style=&quot;&quot;&gt;Office设计器&lt;/span&gt;" style="rounded=1;whiteSpace=wrap;html=1;verticalAlign=top;fillColor=#7EA6E0;fontColor=#FFFFFF;strokeColor=none;" vertex="1" parent="1">
          <mxGeometry x="471" y="498" width="90" height="30" as="geometry" />
        </mxCell>
        <mxCell id="XTF353i9dmQRYV5_vyQs-47" value="表单设计器" style="rounded=1;whiteSpace=wrap;html=1;verticalAlign=top;fillColor=#7EA6E0;fontColor=#FFFFFF;strokeColor=none;" vertex="1" parent="1">
          <mxGeometry x="601" y="498" width="90" height="30" as="geometry" />
        </mxCell>
        <mxCell id="XTF353i9dmQRYV5_vyQs-48" value="&lt;div&gt;MongoDB&lt;/div&gt;" style="shape=cylinder3;whiteSpace=wrap;html=1;boundedLbl=1;backgroundOutline=1;size=15;rounded=0;strokeColor=default;align=center;verticalAlign=bottom;fontFamily=Helvetica;fontSize=12;fontColor=#FFFFFF;fillColor=#7EA6E0;strokeWidth=0;" vertex="1" parent="1">
          <mxGeometry x="662" y="681" width="100" height="53.5" as="geometry" />
        </mxCell>
        <mxCell id="XTF353i9dmQRYV5_vyQs-49" value="&lt;span style=&quot;&quot;&gt;脚本执行引擎&lt;/span&gt;" style="rounded=1;whiteSpace=wrap;html=1;verticalAlign=top;fillColor=#7EA6E0;fontColor=#FFFFFF;strokeColor=none;" vertex="1" parent="1">
          <mxGeometry x="1130.75" y="536" width="90" height="28" as="geometry" />
        </mxCell>
        <mxCell id="XTF353i9dmQRYV5_vyQs-50" value="页面设计器" style="rounded=1;whiteSpace=wrap;html=1;verticalAlign=top;fillColor=#7EA6E0;fontColor=#FFFFFF;strokeColor=none;" vertex="1" parent="1">
          <mxGeometry x="731" y="498" width="90" height="30" as="geometry" />
        </mxCell>
        <mxCell id="XTF353i9dmQRYV5_vyQs-51" value="&lt;span style=&quot;&quot;&gt;流程设计器&lt;/span&gt;" style="rounded=1;whiteSpace=wrap;html=1;verticalAlign=top;fillColor=#7EA6E0;fontColor=#FFFFFF;strokeColor=none;" vertex="1" parent="1">
          <mxGeometry x="471" y="536" width="90" height="30" as="geometry" />
        </mxCell>
        <mxCell id="XTF353i9dmQRYV5_vyQs-52" value="&lt;span style=&quot;&quot;&gt;业务流程编排&lt;/span&gt;" style="rounded=1;whiteSpace=wrap;html=1;verticalAlign=top;fillColor=#7EA6E0;fontColor=#FFFFFF;strokeColor=none;" vertex="1" parent="1">
          <mxGeometry x="601" y="536" width="90" height="30" as="geometry" />
        </mxCell>
        <mxCell id="XTF353i9dmQRYV5_vyQs-53" value="&lt;span style=&quot;&quot;&gt;业务模型设计&lt;/span&gt;" style="rounded=1;whiteSpace=wrap;html=1;verticalAlign=top;fillColor=#7EA6E0;fontColor=#FFFFFF;strokeColor=none;" vertex="1" parent="1">
          <mxGeometry x="731" y="536" width="90" height="30" as="geometry" />
        </mxCell>
        <mxCell id="XTF353i9dmQRYV5_vyQs-54" value="Rancher" style="rounded=1;whiteSpace=wrap;html=1;fillColor=#7EA6E0;strokeColor=none;fontColor=#FFFFFF;arcSize=0;" vertex="1" parent="1">
          <mxGeometry x="1247.5" y="780" width="100" height="30" as="geometry" />
        </mxCell>
        <mxCell id="XTF353i9dmQRYV5_vyQs-55" value="Registry" style="rounded=1;whiteSpace=wrap;html=1;fillColor=#7EA6E0;strokeColor=none;fontColor=#FFFFFF;" vertex="1" parent="1">
          <mxGeometry x="492" y="780" width="100" height="30" as="geometry" />
        </mxCell>
        <mxCell id="XTF353i9dmQRYV5_vyQs-56" value="Debian" style="rounded=1;whiteSpace=wrap;html=1;fillColor=#7EA6E0;strokeColor=none;fontColor=#FFFFFF;" vertex="1" parent="1">
          <mxGeometry x="644" y="780" width="100" height="30" as="geometry" />
        </mxCell>
        <mxCell id="XTF353i9dmQRYV5_vyQs-57" value="JVM" style="rounded=1;whiteSpace=wrap;html=1;fillColor=#7EA6E0;strokeColor=none;fontColor=#FFFFFF;" vertex="1" parent="1">
          <mxGeometry x="795" y="780" width="100" height="30" as="geometry" />
        </mxCell>
        <mxCell id="XTF353i9dmQRYV5_vyQs-58" value="&lt;span style=&quot;&quot;&gt;GrallVM&lt;/span&gt;" style="rounded=1;whiteSpace=wrap;html=1;verticalAlign=top;fillColor=#7EA6E0;fontColor=#FFFFFF;strokeColor=none;" vertex="1" parent="1">
          <mxGeometry x="946.75" y="780" width="90" height="28" as="geometry" />
        </mxCell>
        <mxCell id="XTF353i9dmQRYV5_vyQs-59" value="redis" style="shape=cylinder3;whiteSpace=wrap;html=1;boundedLbl=1;backgroundOutline=1;size=15;rounded=0;strokeColor=default;align=center;verticalAlign=middle;fontFamily=Helvetica;fontSize=12;fontColor=#FFFFFF;fillColor=#7EA6E0;strokeWidth=0;direction=south;" vertex="1" parent="1">
          <mxGeometry x="1008" y="685.88" width="84.75" height="43.75" as="geometry" />
        </mxCell>
        <mxCell id="XTF353i9dmQRYV5_vyQs-60" value="MinIO" style="shape=cylinder3;whiteSpace=wrap;html=1;boundedLbl=1;backgroundOutline=1;size=15;rounded=0;strokeColor=default;align=center;verticalAlign=middle;fontFamily=Helvetica;fontSize=12;fontColor=#FFFFFF;fillColor=#7EA6E0;strokeWidth=0;direction=south;" vertex="1" parent="1">
          <mxGeometry x="1129.38" y="685.88" width="84.75" height="43.75" as="geometry" />
        </mxCell>
        <mxCell id="XTF353i9dmQRYV5_vyQs-61" value="NFS" style="shape=cylinder3;whiteSpace=wrap;html=1;boundedLbl=1;backgroundOutline=1;size=15;rounded=0;strokeColor=default;align=center;verticalAlign=middle;fontFamily=Helvetica;fontSize=12;fontColor=#FFFFFF;fillColor=#7EA6E0;strokeWidth=0;direction=south;" vertex="1" parent="1">
          <mxGeometry x="1247.5" y="685.88" width="84.75" height="43.75" as="geometry" />
        </mxCell>
        <mxCell id="XTF353i9dmQRYV5_vyQs-62" value="&lt;span style=&quot;&quot;&gt;REST API&lt;/span&gt;" style="rounded=1;whiteSpace=wrap;html=1;verticalAlign=top;fillColor=#7EA6E0;fontColor=#FFFFFF;strokeColor=none;" vertex="1" parent="1">
          <mxGeometry x="472" y="423" width="121" height="30" as="geometry" />
        </mxCell>
        <mxCell id="XTF353i9dmQRYV5_vyQs-63" value="&lt;span style=&quot;&quot;&gt;Websocket&lt;/span&gt;" style="rounded=1;whiteSpace=wrap;html=1;verticalAlign=top;fillColor=#7EA6E0;fontColor=#FFFFFF;strokeColor=none;" vertex="1" parent="1">
          <mxGeometry x="638" y="423" width="106" height="30" as="geometry" />
        </mxCell>
        <mxCell id="XTF353i9dmQRYV5_vyQs-64" value="&lt;span style=&quot;&quot;&gt;Event Listener&lt;/span&gt;" style="rounded=1;whiteSpace=wrap;html=1;verticalAlign=middle;fillColor=#7EA6E0;fontColor=#FFFFFF;strokeColor=none;" vertex="1" parent="1">
          <mxGeometry x="778" y="423" width="182" height="30" as="geometry" />
        </mxCell>
        <mxCell id="XTF353i9dmQRYV5_vyQs-65" value="&lt;span style=&quot;&quot;&gt;Message Subscriber&lt;/span&gt;" style="rounded=1;whiteSpace=wrap;html=1;verticalAlign=middle;fillColor=#7EA6E0;fontColor=#FFFFFF;strokeColor=none;" vertex="1" parent="1">
          <mxGeometry x="1010" y="424" width="163" height="30" as="geometry" />
        </mxCell>
        <mxCell id="XTF353i9dmQRYV5_vyQs-66" value="&lt;span style=&quot;&quot;&gt;统一身份认证&lt;/span&gt;" style="rounded=1;whiteSpace=wrap;html=1;verticalAlign=middle;fillColor=#7EA6E0;fontColor=#FFFFFF;strokeColor=none;" vertex="1" parent="1">
          <mxGeometry x="348.25" y="351" width="152.75" height="35" as="geometry" />
        </mxCell>
        <mxCell id="XTF353i9dmQRYV5_vyQs-67" value="微前端" style="rounded=1;whiteSpace=wrap;html=1;verticalAlign=middle;fillColor=#7EA6E0;fontColor=#FFFFFF;strokeColor=none;" vertex="1" parent="1">
          <mxGeometry x="552" y="351" width="125" height="35" as="geometry" />
        </mxCell>
        <mxCell id="XTF353i9dmQRYV5_vyQs-68" value="负载均衡" style="rounded=1;whiteSpace=wrap;html=1;verticalAlign=middle;fillColor=#7EA6E0;fontColor=#FFFFFF;strokeColor=none;" vertex="1" parent="1">
          <mxGeometry x="728" y="351" width="87" height="35" as="geometry" />
        </mxCell>
        <mxCell id="XTF353i9dmQRYV5_vyQs-69" value="服务网关" style="rounded=1;whiteSpace=wrap;html=1;verticalAlign=middle;fillColor=#7EA6E0;fontColor=#FFFFFF;strokeColor=none;" vertex="1" parent="1">
          <mxGeometry x="865" y="351" width="96" height="35" as="geometry" />
        </mxCell>
        <mxCell id="XTF353i9dmQRYV5_vyQs-70" value="权限控制" style="rounded=1;whiteSpace=wrap;html=1;verticalAlign=middle;fillColor=#7EA6E0;fontColor=#FFFFFF;strokeColor=none;" vertex="1" parent="1">
          <mxGeometry x="1012" y="351" width="129" height="35" as="geometry" />
        </mxCell>
        <mxCell id="XTF353i9dmQRYV5_vyQs-71" value="&lt;span style=&quot;color: rgb(255, 255, 255);&quot;&gt;私有云&lt;/span&gt;" style="ellipse;shape=cloud;whiteSpace=wrap;html=1;rounded=0;strokeColor=#7EA6E0;align=center;verticalAlign=middle;fontFamily=Helvetica;fontSize=12;fontColor=#7EA6E0;fillColor=#7EA6E0;" vertex="1" parent="1">
          <mxGeometry x="441" y="841.5" width="157" height="57" as="geometry" />
        </mxCell>
        <mxCell id="XTF353i9dmQRYV5_vyQs-72" value="&lt;font color=&quot;#ffffff&quot;&gt;混合云&lt;/font&gt;" style="ellipse;shape=cloud;whiteSpace=wrap;html=1;rounded=0;strokeColor=#7EA6E0;align=center;verticalAlign=middle;fontFamily=Helvetica;fontSize=12;fontColor=#7EA6E0;fillColor=#7EA6E0;" vertex="1" parent="1">
          <mxGeometry x="789" y="841.5" width="157" height="57" as="geometry" />
        </mxCell>
        <mxCell id="XTF353i9dmQRYV5_vyQs-73" value="&lt;font color=&quot;#ffffff&quot;&gt;公有云&lt;/font&gt;" style="ellipse;shape=cloud;whiteSpace=wrap;html=1;rounded=0;strokeColor=#7EA6E0;align=center;verticalAlign=middle;fontFamily=Helvetica;fontSize=12;fontColor=#7EA6E0;fillColor=#7EA6E0;" vertex="1" parent="1">
          <mxGeometry x="1137.5" y="841.5" width="157" height="57" as="geometry" />
        </mxCell>
        <mxCell id="XTF353i9dmQRYV5_vyQs-74" value="SSO" style="rounded=1;whiteSpace=wrap;html=1;verticalAlign=middle;fillColor=#7EA6E0;fontColor=#FFFFFF;strokeColor=none;" vertex="1" parent="1">
          <mxGeometry x="1192" y="351" width="129" height="35" as="geometry" />
        </mxCell>
      </root>
    </mxGraphModel>
  </diagram>
</mxfile>
